<svg id="Capa_1" data-name="Capa 1" xmlns="http://www.w3.org/2000/svg" viewBox="0 0 148 35.96"><defs><style>.cls-1{fill:#fff;}</style></defs><title>logo</title><path class="cls-1" d="M1,31.36H7.14v4.36c1.25-3,3.27-4.93,6.91-4.76v6.42h-.32c-4.08,0-6.59,2.46-6.59,7.63v8H1Z" transform="translate(-1 -23.52)"/><path class="cls-1" d="M16.4,42.31v-.08C16.4,36,21.41,31,28.15,31s11.68,5,11.68,11.19v.08c0,6.22-5,11.27-11.76,11.27S16.4,48.53,16.4,42.31Zm17.37,0v-.08a5.76,5.76,0,0,0-5.7-6c-3.51,0-5.61,2.7-5.61,5.9v.08a5.75,5.75,0,0,0,5.69,6C31.67,48.21,33.77,45.5,33.77,42.31Z" transform="translate(-1 -23.52)"/><path class="cls-1" d="M43.16,42.23v-.08C43.16,34.91,47.88,31,53,31a8.3,8.3,0,0,1,6.75,3.23V23.52H65.9V53H59.76V49.9A8,8,0,0,1,53,53.42C48,53.42,43.16,49.46,43.16,42.23Zm16.68,0v-.08c0-3.6-2.38-6-5.25-6s-5.29,2.34-5.29,6v.08c0,3.59,2.42,6,5.29,6S59.84,45.82,59.84,42.23Z" transform="translate(-1 -23.52)"/><path class="cls-1" d="M71.41,31.36h6.14v4.36c1.25-3,3.27-4.93,6.91-4.76v6.42h-.32c-4.08,0-6.59,2.46-6.59,7.63v8H71.41Z" transform="translate(-1 -23.52)"/><path class="cls-1" d="M87.68,23.52h6.47V29H87.68Zm.17,7.84H94V53H87.85Z" transform="translate(-1 -23.52)"/><path class="cls-1" d="M115.11,49.9a8,8,0,0,1-6.75,3.52c-5,0-9.86-4-9.86-11.19v-.08c0-7.24,4.73-11.19,9.86-11.19a8.33,8.33,0,0,1,6.75,3.23V31.36h6.14V59.48h-6.14Zm.08-7.67v-.08c0-3.6-2.39-6-5.25-6s-5.3,2.34-5.3,6v.08c0,3.59,2.43,6,5.3,6S115.19,45.82,115.19,42.23Z" transform="translate(-1 -23.52)"/><path class="cls-1" d="M125.57,42.31v-.08c0-6.22,5-11.27,11.76-11.27S149,35.93,149,42.15v.08c0,6.22-5,11.27-11.75,11.27S125.57,48.53,125.57,42.31Zm17.37,0v-.08a5.75,5.75,0,0,0-5.69-6c-3.52,0-5.62,2.7-5.62,5.9v.08a5.75,5.75,0,0,0,5.7,6C140.84,48.21,142.94,45.5,142.94,42.31Z" transform="translate(-1 -23.52)"/></svg>