<?xml version="1.0" encoding="utf-8"?>
<!-- Generator: Adobe Illustrator 24.0.1, SVG Export Plug-In . SVG Version: 6.00 Build 0)  -->
<svg version="1.1" id="Capa_1" xmlns="http://www.w3.org/2000/svg" xmlns:xlink="http://www.w3.org/1999/xlink" x="0px" y="0px"
	 viewBox="0 0 512 512" style="enable-background:new 0 0 512 512;" xml:space="preserve">
<path d="M426,111.2C405,88.5,376.3,76,345.1,76c-23.3,0-44.7,7.4-63.5,21.9c-9.5,7.3-18.1,16.3-25.7,26.8
	c-7.6-10.5-16.2-19.5-25.7-26.8C211.5,83.4,190.2,76,166.9,76C135.7,76,107,88.5,86,111.2c-20.7,22.4-32,53-32,86.2
	c0,34.2,12.7,65.4,40.1,98.4c24.5,29.5,59.6,59.5,100.3,94.1c13.9,11.8,29.7,25.3,46,39.6c4.3,3.8,9.9,5.9,15.6,5.9
	c5.7,0,11.3-2.1,15.6-5.9c16.4-14.3,32.1-27.7,46-39.6c40.7-34.7,75.8-64.6,100.3-94.1c27.3-33,40.1-64.3,40.1-98.4
	C458,164.3,446.6,133.6,426,111.2z"/>
</svg>
